<svg width="1440" height="953" viewBox="0 0 1440 953" fill="none" xmlns="http://www.w3.org/2000/svg">
<rect width="1440" height="953" fill="#FDEDF2"/>
<g opacity="0.05">
<path fill-rule="evenodd" clip-rule="evenodd" d="M223.181 263.8C225.491 277.256 238.271 286.292 251.727 283.982C265.184 281.672 274.219 268.891 271.909 255.435C269.599 241.979 256.818 232.943 243.362 235.253C229.906 237.563 220.871 250.344 223.181 263.8ZM234.296 261.482C235.507 268.541 242.212 273.281 249.271 272.069C256.33 270.857 261.07 264.152 259.858 257.094C258.646 250.035 251.942 245.295 244.883 246.506C237.824 247.718 233.084 254.423 234.296 261.482Z" fill="#E8356D"/>
<path fill-rule="evenodd" clip-rule="evenodd" d="M278.276 276.708C279.275 282.527 284.802 286.434 290.621 285.435C296.439 284.436 300.347 278.909 299.348 273.091C298.349 267.272 292.822 263.364 287.003 264.363C281.184 265.362 277.277 270.889 278.276 276.708ZM283.082 275.704C283.606 278.756 286.506 280.806 289.558 280.282C292.611 279.758 294.66 276.859 294.136 273.806C293.612 270.754 290.713 268.704 287.66 269.228C284.608 269.752 282.558 272.651 283.082 275.704Z" fill="#E8356D"/>
</g>
<g opacity="0.05">
<path fill-rule="evenodd" clip-rule="evenodd" d="M637.75 194.969C648.612 191.425 654.544 179.746 650.999 168.884C647.454 158.022 635.775 152.09 624.913 155.635C614.051 159.179 608.12 170.858 611.664 181.72C615.209 192.582 626.888 198.514 637.75 194.969ZM634.483 186.047C640.181 184.187 643.292 178.061 641.433 172.362C639.573 166.664 633.447 163.553 627.749 165.412C622.051 167.272 618.939 173.398 620.798 179.096C622.658 184.794 628.784 187.906 634.483 186.047Z" fill="#E8356D"/>
<path fill-rule="evenodd" clip-rule="evenodd" d="M641.759 147.785C646.456 146.252 649.021 141.202 647.488 136.505C645.955 131.808 640.905 129.243 636.208 130.775C631.511 132.308 628.946 137.359 630.479 142.056C632.011 146.753 637.062 149.318 641.759 147.785ZM640.344 143.927C642.808 143.123 644.154 140.473 643.35 138.009C642.546 135.545 639.896 134.2 637.432 135.004C634.968 135.808 633.623 138.457 634.427 140.921C635.231 143.385 637.88 144.731 640.344 143.927Z" fill="#E8356D"/>
</g>
<path opacity="0.4" d="M262 710C266.631 713.034 284.086 728.858 291.84 722.514C297.81 717.629 300.878 716.497 308.565 716.497C321.209 716.497 322.734 733.158 338.284 729.011C344.633 727.318 365.048 721.121 370.771 726.845C372.469 728.543 372.541 730.362 374.141 732.139C376.224 734.454 379.537 735.095 381.119 737.073C383.223 739.702 392.208 737.371 395.197 738.035C401.558 739.449 398.95 745.483 404.943 742.487" stroke="#FBDCE6" stroke-width="10" stroke-linecap="round"/>
<path opacity="0.4" d="M633 303C637.631 306.034 655.086 321.858 662.84 315.514C668.81 310.629 671.878 309.497 679.565 309.497C692.209 309.497 693.734 326.158 709.284 322.011C715.633 320.318 736.048 314.121 741.771 319.845C743.469 321.543 743.541 323.362 745.141 325.139C747.224 327.454 750.537 328.095 752.119 330.073C754.223 332.702 763.208 330.371 766.197 331.035C772.558 332.449 769.95 338.483 775.943 335.487" stroke="#FBDCE6" stroke-width="10" stroke-linecap="round"/>
</svg>
